<mxfile host="Electron" agent="Mozilla/5.0 (Windows NT 10.0; Win64; x64) AppleWebKit/537.36 (KHTML, like Gecko) draw.io/28.2.5 Chrome/138.0.7204.251 Electron/37.6.1 Safari/537.36" version="28.2.5">
  <diagram name="Leht-1" id="erZqLP1z8ExFWfdNeASB">
    <mxGraphModel dx="572" dy="902" grid="1" gridSize="10" guides="1" tooltips="1" connect="1" arrows="1" fold="1" page="1" pageScale="1" pageWidth="1100" pageHeight="1700" math="0" shadow="0">
      <root>
        <mxCell id="0" />
        <mxCell id="1" parent="0" />
        <mxCell id="kE-aL0V08btepX_8Aqqf-3" value="" style="edgeStyle=orthogonalEdgeStyle;rounded=0;orthogonalLoop=1;jettySize=auto;html=1;" parent="1" source="kE-aL0V08btepX_8Aqqf-1" target="kE-aL0V08btepX_8Aqqf-2" edge="1">
          <mxGeometry relative="1" as="geometry" />
        </mxCell>
        <mxCell id="kE-aL0V08btepX_8Aqqf-1" value="Algus" style="ellipse;whiteSpace=wrap;html=1;" parent="1" vertex="1">
          <mxGeometry x="220" y="100" width="120" height="80" as="geometry" />
        </mxCell>
        <mxCell id="kE-aL0V08btepX_8Aqqf-5" value="" style="edgeStyle=orthogonalEdgeStyle;rounded=0;orthogonalLoop=1;jettySize=auto;html=1;" parent="1" source="kE-aL0V08btepX_8Aqqf-2" target="kE-aL0V08btepX_8Aqqf-4" edge="1">
          <mxGeometry relative="1" as="geometry" />
        </mxCell>
        <mxCell id="kE-aL0V08btepX_8Aqqf-9" value="" style="edgeStyle=orthogonalEdgeStyle;rounded=0;orthogonalLoop=1;jettySize=auto;html=1;" parent="1" source="kE-aL0V08btepX_8Aqqf-2" target="kE-aL0V08btepX_8Aqqf-8" edge="1">
          <mxGeometry relative="1" as="geometry" />
        </mxCell>
        <mxCell id="kE-aL0V08btepX_8Aqqf-2" value="Kuvame kasutajale tekst &quot;Joonistan sulle kolmnurga:&quot;" style="shape=parallelogram;perimeter=parallelogramPerimeter;whiteSpace=wrap;html=1;fixedSize=1;" parent="1" vertex="1">
          <mxGeometry x="190" y="230" width="180" height="60" as="geometry" />
        </mxCell>
        <mxCell id="kE-aL0V08btepX_8Aqqf-11" value="" style="edgeStyle=orthogonalEdgeStyle;rounded=0;orthogonalLoop=1;jettySize=auto;html=1;" parent="1" source="kE-aL0V08btepX_8Aqqf-4" target="kE-aL0V08btepX_8Aqqf-10" edge="1">
          <mxGeometry relative="1" as="geometry" />
        </mxCell>
        <mxCell id="kE-aL0V08btepX_8Aqqf-4" value="Ootame kasutajalt sisendit" style="whiteSpace=wrap;html=1;" parent="1" vertex="1">
          <mxGeometry x="220" y="520" width="120" height="60" as="geometry" />
        </mxCell>
        <mxCell id="kE-aL0V08btepX_8Aqqf-8" value="Tekitame muutuja nimega &quot;kolmnurgasuurus&quot; kuhu tuleb käsurealt täisarv" style="shape=parallelogram;perimeter=parallelogramPerimeter;whiteSpace=wrap;html=1;fixedSize=1;" parent="1" vertex="1">
          <mxGeometry x="190" y="370" width="180" height="60" as="geometry" />
        </mxCell>
        <mxCell id="kE-aL0V08btepX_8Aqqf-12" style="edgeStyle=orthogonalEdgeStyle;rounded=0;orthogonalLoop=1;jettySize=auto;html=1;exitX=1;exitY=0.5;exitDx=0;exitDy=0;entryX=1;entryY=0.5;entryDx=0;entryDy=0;" parent="1" source="kE-aL0V08btepX_8Aqqf-10" target="kE-aL0V08btepX_8Aqqf-4" edge="1">
          <mxGeometry relative="1" as="geometry">
            <Array as="points">
              <mxPoint x="430" y="690" />
              <mxPoint x="430" y="550" />
            </Array>
          </mxGeometry>
        </mxCell>
        <mxCell id="kE-aL0V08btepX_8Aqqf-13" value="EI" style="edgeLabel;html=1;align=center;verticalAlign=middle;resizable=0;points=[];" parent="kE-aL0V08btepX_8Aqqf-12" vertex="1" connectable="0">
          <mxGeometry x="0.1106" y="-2" relative="1" as="geometry">
            <mxPoint as="offset" />
          </mxGeometry>
        </mxCell>
        <mxCell id="kE-aL0V08btepX_8Aqqf-15" value="" style="edgeStyle=orthogonalEdgeStyle;rounded=0;orthogonalLoop=1;jettySize=auto;html=1;" parent="1" source="kE-aL0V08btepX_8Aqqf-10" target="kE-aL0V08btepX_8Aqqf-14" edge="1">
          <mxGeometry relative="1" as="geometry" />
        </mxCell>
        <mxCell id="kE-aL0V08btepX_8Aqqf-10" value="Kas kasutaja on sisestanud arvu?" style="rhombus;whiteSpace=wrap;html=1;" parent="1" vertex="1">
          <mxGeometry x="210" y="650" width="140" height="80" as="geometry" />
        </mxCell>
        <mxCell id="kE-aL0V08btepX_8Aqqf-17" value="" style="edgeStyle=orthogonalEdgeStyle;rounded=0;orthogonalLoop=1;jettySize=auto;html=1;" parent="1" source="kE-aL0V08btepX_8Aqqf-14" target="kE-aL0V08btepX_8Aqqf-16" edge="1">
          <mxGeometry relative="1" as="geometry" />
        </mxCell>
        <mxCell id="kE-aL0V08btepX_8Aqqf-14" value="Tekitame tsüklimuutuja &quot;i&quot; mille sees on algväärtus 1." style="shape=parallelogram;perimeter=parallelogramPerimeter;whiteSpace=wrap;html=1;fixedSize=1;" parent="1" vertex="1">
          <mxGeometry x="190" y="820" width="180" height="60" as="geometry" />
        </mxCell>
        <mxCell id="kE-aL0V08btepX_8Aqqf-19" value="JAH" style="edgeStyle=orthogonalEdgeStyle;rounded=0;orthogonalLoop=1;jettySize=auto;html=1;" parent="1" source="kE-aL0V08btepX_8Aqqf-16" target="kE-aL0V08btepX_8Aqqf-18" edge="1">
          <mxGeometry relative="1" as="geometry" />
        </mxCell>
        <mxCell id="kE-aL0V08btepX_8Aqqf-34" value="EI" style="edgeStyle=orthogonalEdgeStyle;rounded=0;orthogonalLoop=1;jettySize=auto;html=1;exitX=0;exitY=0.5;exitDx=0;exitDy=0;" parent="1" source="kE-aL0V08btepX_8Aqqf-16" target="kE-aL0V08btepX_8Aqqf-35" edge="1">
          <mxGeometry relative="1" as="geometry">
            <mxPoint x="280" y="2080" as="targetPoint" />
            <Array as="points">
              <mxPoint x="140" y="990" />
              <mxPoint x="140" y="1980" />
              <mxPoint x="280" y="1980" />
            </Array>
          </mxGeometry>
        </mxCell>
        <mxCell id="kE-aL0V08btepX_8Aqqf-16" value="Kas &quot;i&quot; on väiksem&lt;div&gt;&amp;nbsp;või võrdne kui kasutaja sisestatud &quot;kolmnurgasuurus&quot;?&lt;/div&gt;" style="rhombus;whiteSpace=wrap;html=1;" parent="1" vertex="1">
          <mxGeometry x="160" y="950" width="240" height="80" as="geometry" />
        </mxCell>
        <mxCell id="kE-aL0V08btepX_8Aqqf-21" value="" style="edgeStyle=orthogonalEdgeStyle;rounded=0;orthogonalLoop=1;jettySize=auto;html=1;" parent="1" source="kE-aL0V08btepX_8Aqqf-18" target="kE-aL0V08btepX_8Aqqf-20" edge="1">
          <mxGeometry relative="1" as="geometry" />
        </mxCell>
        <mxCell id="kE-aL0V08btepX_8Aqqf-18" value="Tekitame tühja rea&amp;nbsp;&lt;div&gt;konsooli kasutades käsklust&amp;nbsp; Console.Writeline ilma parameetrita.&lt;/div&gt;" style="shape=parallelogram;perimeter=parallelogramPerimeter;whiteSpace=wrap;html=1;fixedSize=1;" parent="1" vertex="1">
          <mxGeometry x="190" y="1120" width="180" height="60" as="geometry" />
        </mxCell>
        <mxCell id="kE-aL0V08btepX_8Aqqf-24" value="" style="edgeStyle=orthogonalEdgeStyle;rounded=0;orthogonalLoop=1;jettySize=auto;html=1;" parent="1" source="kE-aL0V08btepX_8Aqqf-20" target="kE-aL0V08btepX_8Aqqf-23" edge="1">
          <mxGeometry relative="1" as="geometry" />
        </mxCell>
        <mxCell id="kE-aL0V08btepX_8Aqqf-20" value="Tekitame tsüklimuutuja&amp;nbsp;&lt;div&gt;&quot;j&quot; mille sees on algväärtus 1&lt;/div&gt;" style="shape=parallelogram;perimeter=parallelogramPerimeter;whiteSpace=wrap;html=1;fixedSize=1;" parent="1" vertex="1">
          <mxGeometry x="190" y="1260" width="180" height="60" as="geometry" />
        </mxCell>
        <mxCell id="kE-aL0V08btepX_8Aqqf-26" value="JAH" style="edgeStyle=orthogonalEdgeStyle;rounded=0;orthogonalLoop=1;jettySize=auto;html=1;" parent="1" source="kE-aL0V08btepX_8Aqqf-23" target="kE-aL0V08btepX_8Aqqf-25" edge="1">
          <mxGeometry relative="1" as="geometry" />
        </mxCell>
        <mxCell id="kE-aL0V08btepX_8Aqqf-30" value="EI" style="edgeStyle=orthogonalEdgeStyle;rounded=0;orthogonalLoop=1;jettySize=auto;html=1;exitX=0;exitY=0.5;exitDx=0;exitDy=0;entryX=0.5;entryY=0;entryDx=0;entryDy=0;" parent="1" source="kE-aL0V08btepX_8Aqqf-23" target="kE-aL0V08btepX_8Aqqf-32" edge="1">
          <mxGeometry relative="1" as="geometry">
            <mxPoint x="280" y="1850" as="targetPoint" />
            <Array as="points">
              <mxPoint x="160" y="1430" />
              <mxPoint x="160" y="1800" />
              <mxPoint x="280" y="1800" />
            </Array>
          </mxGeometry>
        </mxCell>
        <mxCell id="kE-aL0V08btepX_8Aqqf-23" value="Kas &quot;j&quot; on väiksem&lt;div&gt;&amp;nbsp;või võrdne, kui eelmise while tsüklimuutuja &quot;i&quot;?&lt;/div&gt;" style="rhombus;whiteSpace=wrap;html=1;" parent="1" vertex="1">
          <mxGeometry x="180" y="1390" width="200" height="80" as="geometry" />
        </mxCell>
        <mxCell id="kE-aL0V08btepX_8Aqqf-28" value="" style="edgeStyle=orthogonalEdgeStyle;rounded=0;orthogonalLoop=1;jettySize=auto;html=1;" parent="1" source="kE-aL0V08btepX_8Aqqf-25" target="kE-aL0V08btepX_8Aqqf-27" edge="1">
          <mxGeometry relative="1" as="geometry" />
        </mxCell>
        <mxCell id="kE-aL0V08btepX_8Aqqf-25" value="Kirjutame olemasolevale konsoolireale Console.Write abil sõne, mis sisaldab&amp;nbsp; endas ühte visuaalset elementi &quot;_O&quot;" style="shape=parallelogram;perimeter=parallelogramPerimeter;whiteSpace=wrap;html=1;fixedSize=1;" parent="1" vertex="1">
          <mxGeometry x="180" y="1560" width="200" height="60" as="geometry" />
        </mxCell>
        <mxCell id="kE-aL0V08btepX_8Aqqf-29" style="edgeStyle=orthogonalEdgeStyle;rounded=0;orthogonalLoop=1;jettySize=auto;html=1;exitX=0.5;exitY=1;exitDx=0;exitDy=0;entryX=0.5;entryY=0;entryDx=0;entryDy=0;" parent="1" source="kE-aL0V08btepX_8Aqqf-27" target="kE-aL0V08btepX_8Aqqf-23" edge="1">
          <mxGeometry relative="1" as="geometry">
            <Array as="points">
              <mxPoint x="280" y="1780" />
              <mxPoint x="440" y="1780" />
              <mxPoint x="440" y="1370" />
              <mxPoint x="280" y="1370" />
            </Array>
          </mxGeometry>
        </mxCell>
        <mxCell id="kE-aL0V08btepX_8Aqqf-27" value="Inkrementeerime muutujat &quot;j&quot;&lt;div&gt;&amp;nbsp;ühe võrra&lt;/div&gt;" style="shape=parallelogram;perimeter=parallelogramPerimeter;whiteSpace=wrap;html=1;fixedSize=1;" parent="1" vertex="1">
          <mxGeometry x="180" y="1700" width="200" height="60" as="geometry" />
        </mxCell>
        <mxCell id="kE-aL0V08btepX_8Aqqf-33" style="edgeStyle=orthogonalEdgeStyle;rounded=0;orthogonalLoop=1;jettySize=auto;html=1;exitX=0.5;exitY=1;exitDx=0;exitDy=0;entryX=1;entryY=0.5;entryDx=0;entryDy=0;" parent="1" source="kE-aL0V08btepX_8Aqqf-32" target="kE-aL0V08btepX_8Aqqf-16" edge="1">
          <mxGeometry relative="1" as="geometry">
            <Array as="points">
              <mxPoint x="280" y="1950" />
              <mxPoint x="490" y="1950" />
              <mxPoint x="490" y="990" />
            </Array>
          </mxGeometry>
        </mxCell>
        <mxCell id="kE-aL0V08btepX_8Aqqf-32" value="Inkrementeerime muutujat &quot;i&quot;&lt;div&gt;&amp;nbsp;ühe võrra&lt;/div&gt;" style="shape=parallelogram;perimeter=parallelogramPerimeter;whiteSpace=wrap;html=1;fixedSize=1;" parent="1" vertex="1">
          <mxGeometry x="180" y="1870" width="200" height="60" as="geometry" />
        </mxCell>
        <mxCell id="kE-aL0V08btepX_8Aqqf-35" value="Lõpp" style="ellipse;whiteSpace=wrap;html=1;" parent="1" vertex="1">
          <mxGeometry x="220" y="2070" width="120" height="80" as="geometry" />
        </mxCell>
      </root>
    </mxGraphModel>
  </diagram>
</mxfile>
